<?xml version="1.0"?>
<svg xmlns="http://www.w3.org/2000/svg" xmlns:xlink="http://www.w3.org/1999/xlink" xmlns:svgjs="http://svgjs.com/svgjs" version="1.1" width="512" height="512" x="0" y="0" viewBox="0 0 511.999 511.999" style="enable-background:new 0 0 512 512" xml:space="preserve"><g>
<g xmlns="http://www.w3.org/2000/svg">
	<g>
		<path d="M464.652,27.022c-7.211-12.491-18.856-21.425-32.788-25.159C417.93-1.87,403.38,0.046,390.888,7.258    c-12.492,7.212-21.427,18.857-25.158,32.789l-2.07,7.727c-2.711,10.116-2.429,20.556,0.682,30.299    c-4.825-0.526-9.672-0.298-14.371,0.651c-0.812,0.065-3.35,0.807-3.35,0.807c-1.704,0.476-3.382,1.047-5.025,1.714l-57.695,19.681    L250.276,67.3c1.819-3.789,2.84-8.032,2.84-12.509v-5.278c0-15.991-13.01-28.999-28.999-28.999h-11.956    c-15.99,0-28.999,13.009-28.999,28.999v5.278c0,7.282,2.704,13.941,7.153,19.039c-1.296,1.155-2.297,2.641-2.855,4.345    c-1.083,3.305-0.371,6.936,1.881,9.586l1.134,1.335l-55.032-37.668c-4.402-3.013-10.383-2.037-13.605,2.2L90.979,30.575    c-14.068-10.509-34.062-7.613-44.57,6.455c-10.51,14.065-7.614,34.059,6.454,44.568l30.727,22.954l-4.72,6.286    c-1.702,2.266-2.362,5.148-1.817,7.929c0.546,2.781,2.245,5.2,4.677,6.656l49.654,29.725c4.739,2.837,10.879,1.295,13.717-3.444    c2.837-4.738,1.295-10.879-3.443-13.716l-40.126-24.02l30.512-40.633l91.787,62.827l18.579,13.707    c0.017,0.013,0.034,0.025,0.052,0.038l44.329,32.705l66.833,67.508v65.386c0,5.522,4.478,10,10,10s10-4.478,10-10v-50.633    l12.349,12.349c1.444,1.443,3.284,2.393,5.264,2.758c1.355,4.293,3.724,8.333,7.122,11.731c0,0.001,0,0.001,0.001,0.001    l5.526,5.526c5.653,5.653,13.08,8.48,20.506,8.48c7.426,0,14.853-2.827,20.506-8.48l10.526-10.526    c11.307-11.308,11.307-29.705,0-41.012l-5.527-5.527c-4.846-4.846-10.996-7.608-17.331-8.3c-0.187-0.223-0.38-0.443-0.59-0.653    l-28.354-28.354l23.477-36.087c7.095-10.905,9.332-23.876,6.301-36.528c-1.358-5.664-3.693-10.903-6.861-15.55    c5.652-1.15,11.142-3.218,16.282-6.186c12.492-7.212,21.427-18.857,25.159-32.789l2.07-7.727    C473.78,54.066,471.865,39.514,464.652,27.022z M95.483,88.474L64.832,65.576c-2.535-1.894-4.181-4.661-4.634-7.792    c-0.454-3.131,0.34-6.252,2.233-8.787c2.323-3.11,5.892-4.752,9.505-4.752c2.465,0,4.951,0.765,7.074,2.351l30.652,22.898    L95.483,88.474z M378.967,105.014l18.815,10.863l-22.771,8.649L378.967,105.014z M203.161,54.789v-5.278c0-4.962,4.037-9,9-9    h11.956c4.963,0,9,4.038,9,9v5.278c0,4.962-4.037,9-9,9h-11.956C207.198,63.789,203.161,59.751,203.161,54.789z M283.599,155.403    l-28.305-20.883l-40.154-47.28l21.647-5.148l37.376,37.376c2.698,2.697,6.694,3.623,10.301,2.393l26.657-9.093L283.599,155.403z     M338.082,205.993l-37.626-38.006c-0.235-0.236-0.499-0.44-0.756-0.652l36.933-57.212c3.036-4.703,7.298-8.149,12.102-10.186    l3.694-1.26c2.468-0.647,5.025-0.944,7.594-0.872L338.082,205.993z M423.024,254.314c1.699-1.7,3.96-2.636,6.363-2.636    c2.404,0,4.665,0.936,6.364,2.636l5.527,5.526c1.7,1.699,2.636,3.96,2.636,6.364c0,2.403-0.936,4.664-2.636,6.363l-10.526,10.527    c-1.699,1.7-3.96,2.636-6.363,2.636c-2.404,0-4.665-0.936-6.365-2.636l-5.526-5.525c-3.509-3.51-3.509-9.22,0-12.729    L423.024,254.314z M410.761,238.288l-17.72,17.72l-14.539-14.539l13.968-21.471L410.761,238.288z M410.333,155.87l-48.33,74.287    l-6.985-7.055l15.292-75.398l42.587-16.175c0.417,1.094,0.773,2.219,1.051,3.379C415.686,142.169,414.402,149.613,410.333,155.87z     M450.729,62.822l-2.07,7.728c-4.853,18.108-23.535,28.893-41.641,24.041c-8.772-2.351-16.104-7.977-20.645-15.842    c-4.541-7.865-5.747-17.027-3.396-25.799l2.07-7.727c2.351-8.772,7.977-16.104,15.842-20.645    c7.864-4.542,17.027-5.747,25.799-3.396s16.104,7.977,20.645,15.841S453.08,54.049,450.729,62.822z" fill="#ffffff" data-original="#000000" style=""/>
	</g>
</g>
<g xmlns="http://www.w3.org/2000/svg">
	<g>
		<path d="M175.807,158.788c-1.859-1.86-4.429-2.93-7.069-2.93c-2.63,0-5.2,1.07-7.07,2.93c-1.86,1.86-2.92,4.44-2.92,7.07    s1.06,5.21,2.92,7.07c1.87,1.86,4.44,2.93,7.07,2.93c2.64,0,5.21-1.07,7.069-2.93c1.87-1.86,2.94-4.44,2.94-7.07    S177.677,160.648,175.807,158.788z" fill="#ffffff" data-original="#000000" style=""/>
	</g>
</g>
<g xmlns="http://www.w3.org/2000/svg">
	<g>
		<path d="M370.694,345.934c-1.86-1.86-4.44-2.93-7.07-2.93s-5.21,1.069-7.07,2.93c-1.859,1.86-2.93,4.44-2.93,7.07    s1.07,5.21,2.93,7.069c1.86,1.861,4.44,2.931,7.07,2.931s5.21-1.07,7.07-2.931c1.859-1.859,2.93-4.439,2.93-7.069    S372.553,347.794,370.694,345.934z" fill="#ffffff" data-original="#000000" style=""/>
	</g>
</g>
<g xmlns="http://www.w3.org/2000/svg">
	<g>
		<path d="M373.621,456.194v-61.692c0-5.522-4.478-10-10-10c-5.522,0-10,4.478-10,10v57.499h-0.013h-42.986V311.505    c0-1.563-0.366-3.104-1.069-4.5L271.862,232.2c-0.048-0.095-0.105-0.181-0.156-0.273c-0.086-0.158-0.172-0.315-0.267-0.47    c-0.099-0.161-0.205-0.314-0.312-0.468c-0.057-0.082-0.106-0.168-0.166-0.249l-19.307-26.013    c-0.783-1.055-1.767-1.946-2.894-2.621l-42.168-25.244c-4.741-2.836-10.88-1.295-13.717,3.444    c-2.837,4.738-1.295,10.879,3.443,13.716l40.461,24.221l17.606,23.723l36.237,71.915V462V487c0,1.712,0.174,3.384,0.503,5h-59.472    c-5.522,0-10,4.478-10,10c0,5.522,4.478,10,10,10h161.954c5.522,0,10-4.478,10-10    C403.608,481.545,391.255,463.928,373.621,456.194z M344.317,492.001h-28.694c-2.757,0-5-2.243-5-5v-15h42.986    c13.037,0,24.158,8.359,28.285,20H344.317z" fill="#ffffff" data-original="#000000" style=""/>
	</g>
</g>
<g xmlns="http://www.w3.org/2000/svg">
</g>
<g xmlns="http://www.w3.org/2000/svg">
</g>
<g xmlns="http://www.w3.org/2000/svg">
</g>
<g xmlns="http://www.w3.org/2000/svg">
</g>
<g xmlns="http://www.w3.org/2000/svg">
</g>
<g xmlns="http://www.w3.org/2000/svg">
</g>
<g xmlns="http://www.w3.org/2000/svg">
</g>
<g xmlns="http://www.w3.org/2000/svg">
</g>
<g xmlns="http://www.w3.org/2000/svg">
</g>
<g xmlns="http://www.w3.org/2000/svg">
</g>
<g xmlns="http://www.w3.org/2000/svg">
</g>
<g xmlns="http://www.w3.org/2000/svg">
</g>
<g xmlns="http://www.w3.org/2000/svg">
</g>
<g xmlns="http://www.w3.org/2000/svg">
</g>
<g xmlns="http://www.w3.org/2000/svg">
</g>
</g></svg>
