<?xml version="1.0"?>
<svg xmlns="http://www.w3.org/2000/svg" xmlns:xlink="http://www.w3.org/1999/xlink" xmlns:svgjs="http://svgjs.com/svgjs" version="1.1" width="512" height="512" x="0" y="0" viewBox="0 0 512.047 512.047" style="enable-background:new 0 0 512 512" xml:space="preserve" class=""><g><path xmlns="http://www.w3.org/2000/svg" d="m504.555 497.047h-178.845c1.109-8.147-3.802-16.158-11.65-18.793l-40.632-13.637 32.511-196.25 26.113-19.443c13.387 13.903 35.681 15.959 51.464 4.938l32.551-22.728c12.771-8.916 21.169-22.909 23.042-38.389 1.166-9.624-13.729-11.436-14.891-1.803-1.361 11.25-7.463 21.416-16.739 27.893l-32.551 22.728c-11.499 8.03-28.067 4.568-35.433-7.388l-33.98-54.155 18.975-11.863 29.299 45.259c2.999 3.734 6.568 4.397 10.707 1.989l38.281-27.84c7.842-5.704-.979-17.833-8.822-12.131l-31.877 23.183-18.366-28.37 78.007-45.415c6.766 8.359 9.897 19.155 8.599 29.884-1.133 9.358 13.707 11.597 14.891 1.801 1.58-13.053-1.615-26.176-8.81-36.996 10.818-4.089 20.191-11.128 27.14-20.131 24.354 5.272 48.288-13.956 48.288-38.886 0-25.605-25.189-45.024-50.006-38.478-46.937-54.066-132.392.457-103.115 65.974l-19.107 14.605-49.387-16.055c-4.046-1.338-8.359 1.036-9.564 5.095l-12.083-4.562c-29.548-11.158-45.332 36.349-14.512 44.733l10.76 2.927c-.294 3.232 1.542 6.398 4.703 7.649l7.3 2.89c-.472 1.883-.677 3.811-.615 5.781l-28.125 21.498-103.512-57.374c-8.482-4.703-15.753 8.419-7.271 13.119l106.064 58.789 26.791 44.023c-.732.302-1.424.723-2.047 1.261l-31.711 27.448c-7.332 6.347 2.484 17.687 9.816 11.342l13.71-11.867-10.035 39.806c-2.306 9.144 12.146 13.182 14.545 3.666l14.449-57.313 12.303 20.218-32.555 196.516h-24.447l-18.782-199.78c-.169-1.8-.982-3.478-2.29-4.725l-152.385-145.349 16.973-17.069 29.52 16.362c8.481 4.699 15.753-8.419 7.271-13.119l-83.921-48.712c-20.888-12.449-41.648 19.257-22.198 33.94l192.359 182.865 19.126 203.435c.192 3.57-.531 23.966.585 27.003h-212.879c-4.143 0-7.5 3.357-7.5 7.5s3.357 7.5 7.5 7.5h497c9.697-.242 10.131-14.598 0-14.999zm-487.036-425.189c-5.4-3.846.037-11.854 5.518-9.078l39.612 23.7-13.203 15.204-31.15-29.19c-.245-.23-.504-.441-.777-.636zm241.127 111.505 23.031-17.603 5.897 7.735c-.955 2.196-.845 4.807.521 6.983l35.272 56.213-22.206 16.533zm48.372-37.241 5.785 9.311-13.41 8.825-6.452-8.463c-6.782-8.892 8.055-19.36 14.077-9.673zm24.841 5.815c-1.521-2.087-3.413-3.218-5.676-3.392-2.33-3.794-4.563-7.715-7.106-11.374l42.672-32.617-28.897 48.916zm79.925-86.721c-3.122 14.26-2.726 30.436 5.04 43.225-34.767 1.942-60.295-36.578-44.048-67.532zm-35.777 44.693c6.433 5.161 13.917 9.059 22.077 11.326l-43.849 25.528zm95.996-74.201c33.183 1.426 32.666 48.394-.285 49.577 6.559-15.172 6.099-34.723-1.102-49.52.461-.025.922-.057 1.387-.057zm-10.617 26.064c0 19.333-11.817 35.962-28.614 43.058-13.579-14.812-5.312-40.402-5.226-40.66 1.112-3.296-.188-6.924-3.141-8.764l-42.825-26.684c28.862-29.177 79.9-8.434 79.806 33.05zm-155.036 66.247c-6.937-2.023-15.793-.252-21.445 4.332l-3.024-1.197 10.521-28.12 32.719 10.637zm-53.819-15.214c-3.464-7.185 3.962-14.245 10.735-11.689l12.125 4.577-5.563 14.869-11.837-3.221c-2.43-.66-4.368-2.271-5.46-4.536zm-12.763 384.242c-2.468-.289-4.919-1.822-4.919-4.704v-15.148h28.91l45.526 15.28c2.36 1.735 2.112 3.259-.745 4.572z" fill="#ed1c24" data-original="#000000" style=""/></g></svg>
