<svg xmlns="http://www.w3.org/2000/svg" width="162.929" height="197.386" viewBox="0 0 162.929 197.386"><g transform="translate(-3808.534 -3754.491)"><path d="M3993.353,3966.951a15.465,15.465,0,1,0-15.465-15.464A15.482,15.482,0,0,0,3993.353,3966.951Zm0-23.305a7.841,7.841,0,1,1-7.841,7.841A7.85,7.85,0,0,1,3993.353,3943.646Z" transform="translate(-131.38 -140.826)" fill="#f8f8f8"/><path d="M3912.578,4089.154h-59.189a15.7,15.7,0,0,0-15.534,13.414h0l-5.485,37.458-23.058,56.557v0l0,0a10.886,10.886,0,0,0,5.958,14.047,11.03,11.03,0,0,0,4.255.859,10.854,10.854,0,0,0,3.955-.747,10.627,10.627,0,0,0,5.943-5.742c0-.01.007-.019.011-.028s.014-.028.02-.043l19.962-49.089,20.026,49.093c.006.015.014.029.02.043s.008.022.012.033c.017.039.037.076.055.114s.032.069.049.1a10.9,10.9,0,0,0,8.754,6.178,10.773,10.773,0,0,0,1.173.064,10.818,10.818,0,0,0,9.943-15.145c-.005-.014-.009-.027-.015-.041l-22.7-55.748,1.407-10.28a13.688,13.688,0,0,0,6.44,1.592,13.959,13.959,0,0,0,3.27-.387,13.355,13.355,0,0,0,9-7.189.124.124,0,0,1,.006-.011l7.439-15.583h18.612a9.768,9.768,0,1,0-.329-19.532Zm-30.448,113.361a3.338,3.338,0,0,1-5.658-.517l-23.279-57.067a4.214,4.214,0,0,0-7.572,0l-23.208,57.072a3.282,3.282,0,0,1-6.037-2.553h0l23.229-56.976c.009-.023.016-.047.024-.071.029-.075.056-.151.08-.229.016-.05.03-.1.043-.148s.032-.125.045-.189.026-.125.037-.188c0-.021.009-.042.012-.062l5.552-37.916h0a8.116,8.116,0,0,1,7.991-6.9h59.188a2.356,2.356,0,0,1,2.069.949,2.146,2.146,0,0,1,.051,2.154,2.281,2.281,0,0,1-1.887,1.182h-34.363c-.026,0-.051,0-.076,0-.079,0-.158.005-.236.012-.053,0-.105.009-.158.016-.067.009-.134.019-.2.031s-.123.023-.184.037-.111.027-.166.042-.133.039-.2.06c-.049.017-.1.036-.147.055q-.1.037-.195.079c-.05.023-.1.047-.147.072s-.117.059-.173.091-.107.063-.16.1-.1.061-.142.094-.113.083-.169.126c-.039.031-.078.062-.116.094-.057.048-.111.1-.166.15-.035.033-.069.066-.1.1-.05.052-.1.106-.147.162-.035.041-.069.081-.1.122s-.08.1-.118.158-.073.105-.108.16-.058.094-.085.142c-.039.066-.075.134-.11.2-.012.024-.026.046-.038.07l-2.621,5.519-2.954-2.244-.019-.013c-.073-.055-.15-.105-.228-.155-.03-.02-.059-.041-.088-.059-.071-.043-.146-.082-.22-.12-.039-.021-.077-.043-.117-.062-.055-.025-.112-.047-.168-.07s-.123-.053-.186-.076c-.036-.013-.074-.022-.111-.034-.084-.028-.169-.054-.255-.076-.03-.008-.062-.012-.092-.019-.094-.02-.187-.04-.282-.053l-.021,0c-.034,0-.067-.005-.1-.009-.083-.009-.166-.018-.248-.021-.059,0-.116,0-.174,0s-.128,0-.192,0-.137.011-.2.018-.106.011-.16.019c-.071.01-.141.024-.21.04-.051.01-.1.02-.153.033s-.13.036-.194.056-.111.034-.166.053-.11.042-.165.065-.124.051-.185.08c-.045.021-.089.044-.133.068-.067.035-.133.07-.2.11-.038.022-.074.047-.111.071-.066.043-.132.087-.2.134-.036.027-.071.057-.107.085-.059.048-.118.1-.175.146s-.081.078-.122.118-.093.09-.137.139-.1.115-.146.174c-.025.031-.052.059-.077.091-.005.007-.009.015-.015.021-.053.07-.1.144-.148.218-.021.033-.045.064-.065.1-.042.069-.078.14-.115.211-.022.042-.046.083-.066.125s-.045.108-.068.163-.055.126-.079.191c-.013.036-.021.072-.033.108-.027.085-.055.171-.076.258-.007.03-.012.062-.019.092-.021.093-.04.188-.053.282,0,.007,0,.015,0,.022l-4.31,31.488c0,.012,0,.025,0,.038-.011.084-.017.168-.021.252,0,.043-.007.086-.008.129,0,.078,0,.156,0,.234,0,.05,0,.1.005.149,0,.065.014.129.022.195s.014.124.025.185.022.1.034.154c.016.074.032.147.052.219.013.044.028.087.042.131.025.077.05.155.081.23,0,.013.008.025.013.039l23.087,56.692c0,.01.009.021.014.031s.005.016.009.023A3.34,3.34,0,0,1,3882.129,4202.515Zm-2.154-81.531v0a5.692,5.692,0,0,1-3.916,3.073,5.991,5.991,0,0,1-5.013-.953h0l-1.746-1.345.715-5.227.574.436a3.723,3.723,0,0,0,.387.255,4.693,4.693,0,0,0,2.533.741,4.764,4.764,0,0,0,1.125-.135,4.706,4.706,0,0,0,3.146-2.556,3.841,3.841,0,0,0,.206-.546l2.87-6.042h4.99Z" transform="translate(0 -259.621)" fill="#f8f8f8"/><path d="M4329.668,3762.115h15.841v28.143H4338.8a11.679,11.679,0,0,0-11.629,11.7V3882.1c0,5.124,2.625,10.257,7.2,14.084a22.673,22.673,0,0,0,29.9,0c4.577-3.827,7.2-8.96,7.2-14.084v-80.145a11.679,11.679,0,0,0-11.629-11.7h-6.708v-28.143h15.841a3.812,3.812,0,1,0,0-7.624h-39.305a3.812,3.812,0,1,0,0,7.624Zm19.652,132.074a16.283,16.283,0,0,1-10.058-3.85,12.821,12.821,0,0,1-3.964-5.433h28.034C4361.548,3889.854,4355.386,3894.188,4349.32,3894.189Zm14.525-14.888h-29.051v-77.341a4.047,4.047,0,0,1,4.005-4.078h21.041a4.046,4.046,0,0,1,4,4.078Z" transform="translate(-401.322 0)" fill="#f8f8f8"/></g></svg>