<svg xmlns="http://www.w3.org/2000/svg" width="148.489" height="163.811" viewBox="0 0 148.489 163.811"><g transform="translate(-1570.633 -347.713)"><path d="M1764.1,644.953a19.547,19.547,0,1,0,19.547-19.547A19.569,19.569,0,0,0,1764.1,644.953Zm31.4,0A11.857,11.857,0,1,1,1783.65,633.1,11.87,11.87,0,0,1,1795.507,644.953Z" transform="translate(-149.712 -214.886)" fill="#f8f8f8"/><path d="M1756.662,846.349c0-.042,0-.084,0-.126,0-.164-.011-.327-.017-.49,0-.056,0-.112-.006-.167-.005-.109-.013-.218-.019-.327s-.014-.24-.023-.36c0-.037-.006-.074-.009-.112a25.768,25.768,0,0,0-7.262-16.109,25.009,25.009,0,0,0-13.786-7.217,25.883,25.883,0,0,0-4.7-.429,3.855,3.855,0,0,0-.715.069h-25.061a25.822,25.822,0,0,0-25.793,25.793v24.088a6.82,6.82,0,0,0,6.813,6.813h63.7a6.855,6.855,0,0,0,6.882-6.813V846.874h0c0-.01,0-.02,0-.03v-.007C1756.668,846.674,1756.665,846.512,1756.662,846.349Zm-51.6-17.578h26.16a17.68,17.68,0,0,1,17.718,16.951c0,.067.011.133.015.2,0,.091,0,.184.007.276.008.225.016.45.017.677v23.21h-7.615V847.012a2.827,2.827,0,0,0-5.654,0v23.072h-35.481V847.012a2.827,2.827,0,0,0-5.654,0v23.072h-7.615v-23.21A18.124,18.124,0,0,1,1705.062,828.771Z" transform="translate(-84.065 -366.251)" fill="#f8f8f8"/><path d="M1675.319,386.807a19.547,19.547,0,1,0-19.547-19.547A19.569,19.569,0,0,0,1675.319,386.807Zm0-31.4a11.857,11.857,0,1,1-11.857,11.857A11.87,11.87,0,0,1,1675.319,355.4Z" transform="translate(-65.883)" fill="#f8f8f8"/><path d="M1616.007,596.236a3.845,3.845,0,0,0-3.845-3.845h-20.57V569.25a2.827,2.827,0,0,0-5.655,0v23.142h-7.615V569.112a18.158,18.158,0,0,1,18.172-18.1h26.091a18.2,18.2,0,0,1,14.654,7.337,3.845,3.845,0,1,0,6.2-4.55,25.915,25.915,0,0,0-20.854-10.477H1596.5a25.857,25.857,0,0,0-25.862,25.793V593.2a6.89,6.89,0,0,0,6.882,6.882h34.647A3.845,3.845,0,0,0,1616.007,596.236Z" transform="translate(0 -151.365)" fill="#f8f8f8"/><path d="M1989.326,502.461a19.547,19.547,0,1,0-19.547-19.547A19.569,19.569,0,0,0,1989.326,502.461Zm0-31.4a11.857,11.857,0,1,1-11.857,11.857A11.87,11.87,0,0,1,1989.326,471.058Z" transform="translate(-308.869 -89.497)" fill="#f8f8f8"/><path d="M2009.424,684.766a25.828,25.828,0,0,0-25.86-25.792h-26.092a23.723,23.723,0,0,0-9.279,1.8,3.845,3.845,0,1,0,2.876,7.132,16.157,16.157,0,0,1,6.4-1.247h26.091a18.138,18.138,0,0,1,18.17,18.1v23.279h-7.615V684.9a2.827,2.827,0,1,0-5.654,0v23.141H1968.17a3.845,3.845,0,0,0,0,7.69h34.372a6.89,6.89,0,0,0,6.882-6.882V684.767h0Z" transform="translate(-290.302 -240.862)" fill="#f8f8f8"/></g></svg>