<svg xmlns="http://www.w3.org/2000/svg" width="148.357" height="152.826" viewBox="0 0 148.357 152.826"><g transform="translate(-398.244 -3927.108)"><path d="M546.387,3946.938h0a7.339,7.339,0,0,0-7.357-6.713H519.786q-.1-2.974-.385-5.955h0v-.01l0-.025v0a7.614,7.614,0,0,0-1.972-4.855,7.464,7.464,0,0,0-5.361-2.268H432.705a7.084,7.084,0,0,0-5.195,2.333,7.548,7.548,0,0,0-1.992,4.791v.016h0q-.285,2.99-.387,5.976h-19.39a7.3,7.3,0,0,0-7.283,6.713c-2.574,28.948,18.613,54.755,47.489,58.287q2.746,3.573,5.827,6.918l.021.02c.007.008.013.017.021.024a28.254,28.254,0,0,1-3.833,42.277H439.74a7.372,7.372,0,0,0-7.025,5.133v0l0,.005v0h0l-5.054,15.6,0,.01c-.028.088-.051.177-.072.268-.007.03-.017.059-.023.09-.012.059-.02.119-.029.178s-.022.126-.029.189c0,.027,0,.055-.005.082-.008.1-.014.192-.014.287,0,0,0,.006,0,.009,0,.021,0,.041,0,.062,0,.1.005.192.014.287,0,.043.012.085.018.128.01.073.019.146.033.217s.027.118.042.176.025.106.041.158c.02.067.044.133.068.2.016.043.03.086.047.128.027.067.058.131.088.2.02.041.038.082.059.122.031.06.066.117.1.175s.051.088.079.13.067.1.1.145.069.1.106.142.066.077.1.115.088.1.136.149c.031.032.065.063.1.093.052.05.1.1.159.144.035.029.071.056.107.084.055.043.111.086.169.126s.091.058.137.087.1.065.157.095.128.066.194.1c.04.019.078.04.119.057.086.037.174.07.264.1.021.007.041.017.063.024l.011,0c.043.014.086.025.13.037.064.018.128.035.193.049l.121.024c.078.015.157.026.235.036l.084.01c.114.011.228.018.341.018h82.582c.113,0,.226-.007.34-.018l.084-.01c.078-.009.156-.021.234-.036l.119-.023c.065-.014.13-.032.2-.051.042-.011.084-.021.125-.034h0l.013,0q.164-.053.321-.121c.034-.015.067-.032.1-.048.072-.034.144-.067.213-.106.054-.029.1-.062.156-.094s.093-.056.138-.087.116-.085.173-.129c.034-.027.07-.052.1-.08.057-.047.11-.1.164-.149.031-.029.063-.058.093-.088.048-.05.093-.1.139-.153s.065-.073.1-.111.072-.1.108-.144.069-.093.1-.142.053-.086.079-.13.069-.115.1-.174c.021-.039.039-.08.058-.12.031-.065.062-.13.09-.2.017-.041.031-.084.046-.126.024-.067.049-.132.069-.2.016-.053.028-.107.041-.161s.03-.115.042-.174c.015-.078.025-.156.036-.234,0-.037.012-.074.016-.111.011-.111.016-.223.017-.335,0-.007,0-.015,0-.022v0c0-.113-.006-.227-.017-.341,0-.009,0-.019,0-.028-.007-.062-.019-.124-.028-.186s-.017-.122-.029-.181c0-.01-.006-.021-.008-.031-.024-.111-.052-.22-.086-.326v0l-4.983-15.608v-.008a7.372,7.372,0,0,0-7.029-5.143h-8.168a28.254,28.254,0,0,1-3.833-42.277c.007-.007.013-.016.021-.024l.02-.02q3.064-3.321,5.8-6.88a53.914,53.914,0,0,0,47.446-58.325Zm-140.737.639c.012-.13.058-.13.089-.13h19.393a101,101,0,0,0,14.956,49.286A46.9,46.9,0,0,1,405.65,3947.578ZM505.1,4061.687a.185.185,0,0,1,.153.133h0l3.477,10.89H436.059l3.526-10.884v-.007a.184.184,0,0,1,.153-.132Zm-26.78-26.2a35.382,35.382,0,0,0,8.1,18.977H458.5a35.493,35.493,0,0,0-1.412-47.216l0,0a93.673,93.673,0,0,1-24.372-72.326v-.014a3.857,3.857,0,0,1,.074-.524c.022-.021.041-.037.056-.05h79.224a.277.277,0,0,1,.073.011c.019.1.044.267.067.541,0,.006,0,.012,0,.018s0,.012,0,.018a93.674,93.674,0,0,1-24.372,72.326l0,0A35.345,35.345,0,0,0,478.324,4035.487Zm50.138-53.771a46.351,46.351,0,0,1-23.692,15.111,101,101,0,0,0,15.014-49.38H539.03a.151.151,0,0,1,.162.131h0A46.382,46.382,0,0,1,528.461,3981.716Z" transform="translate(0)" fill="#f8f8f8"/><path d="M668.7,4039.142c.045.03.092.057.138.084.018.011.035.023.053.032a3.792,3.792,0,0,0,5.521-4.5l0,0v0l-5.247-15.331,8.641-9.306h0a3.889,3.889,0,0,0,.807-4.084,3.75,3.75,0,0,0-3.348-2.3h-.011l-12.7-.6-5.405-11.611h0a3.828,3.828,0,0,0-3.44-2.229,3.867,3.867,0,0,0-3.49,2.228h0v0l-5.405,11.611-12.7.6h-.011a3.647,3.647,0,0,0-3.275,2.3,3.874,3.874,0,0,0,.729,4.078l.005.006,8.646,9.312-5.181,15.339s0,.008,0,.011a3.8,3.8,0,0,0,1.266,4.224,3.714,3.714,0,0,0,4.376.144h0l15.018-10.035,15.018,10.035h0Zm-12.99-15.833,0,0-.047-.031c-.027-.018-.055-.032-.082-.049-.05-.031-.1-.062-.152-.091s-.1-.051-.154-.076c-.03-.014-.059-.031-.09-.044l-.021-.008c-.068-.029-.137-.053-.206-.076a3.826,3.826,0,0,0-2.559,0c-.067.023-.133.046-.2.073l-.022.008c-.032.014-.062.031-.093.046-.05.024-.1.047-.15.074s-.1.06-.153.092c-.027.017-.055.031-.082.049l-.047.031,0,0-10.954,7.319,3.516-10.41a3.78,3.78,0,0,0-.772-3.894l-6.384-6.876,9.4-.44h.009a3.727,3.727,0,0,0,3.207-2.227h0v0l4.008-8.611,4.009,8.611h0a3.727,3.727,0,0,0,3.207,2.227h.009l9.4.44-6.384,6.876h0a3.781,3.781,0,0,0-.77,3.9l3.576,10.448Z" transform="translate(-181.366 -48.971)" fill="#f8f8f8"/></g></svg>